<svg width="25" height="20" viewBox="0 0 25 20" fill="none" xmlns="http://www.w3.org/2000/svg">
<path d="M0.571442 1.99997C0.571442 1.36879 1.08312 0.857117 1.7143 0.857117H23.4286C24.0598 0.857117 24.5714 1.36879 24.5714 1.99997C24.5714 2.63116 24.0598 3.14283 23.4286 3.14283H1.7143C1.08312 3.14283 0.571442 2.63116 0.571442 1.99997Z" fill="#212121"/>
<path d="M0.571442 9.99978C0.571442 9.36858 1.08312 8.85681 1.7143 8.85681L14.2857 8.85715C14.9169 8.85715 15.4286 9.36881 15.4286 10C15.4286 10.6312 14.9169 11.1429 14.2857 11.1429L1.7143 11.1426C1.08312 11.1426 0.571442 10.6309 0.571442 9.99978Z" fill="#212121"/>
<path d="M1.7143 16.8569C1.08312 16.8569 0.571442 17.3686 0.571442 17.9998C0.571442 18.6309 1.08312 19.1425 1.7143 19.1425H21.1429C21.7741 19.1425 22.2857 18.6309 22.2857 17.9998C22.2857 17.3686 21.7741 16.8569 21.1429 16.8569H1.7143Z" fill="#212121"/>
</svg>
