<svg width="177" height="50" viewBox="0 0 177 50" fill="none" xmlns="http://www.w3.org/2000/svg">
<path d="M66.7513 17.4402H64.8153V8.15997H70.1346V9.77228H66.7513V12.1653H69.8997V13.7713H66.7513V17.4402ZM78.2469 13.8792C78.2469 14.4717 78.1665 14.9964 78.0057 15.4534C77.8491 15.9105 77.6185 16.2977 77.3138 16.6151C77.0134 16.9282 76.6494 17.1652 76.222 17.326C75.7988 17.4868 75.3206 17.5672 74.7874 17.5672C74.2881 17.5672 73.8289 17.4868 73.41 17.326C72.9953 17.1652 72.6335 16.9282 72.3246 16.6151C72.0199 16.2977 71.7829 15.9105 71.6136 15.4534C71.4486 14.9964 71.3661 14.4717 71.3661 13.8792C71.3661 13.0921 71.5057 12.4256 71.785 11.8797C72.0643 11.3338 72.4621 10.9191 72.9784 10.6356C73.4946 10.352 74.1104 10.2103 74.8255 10.2103C75.4899 10.2103 76.0781 10.352 76.5902 10.6356C77.1065 10.9191 77.5106 11.3338 77.8026 11.8797C78.0988 12.4256 78.2469 13.0921 78.2469 13.8792ZM73.3402 13.8792C73.3402 14.3447 73.391 14.7361 73.4925 15.0535C73.5941 15.3709 73.7528 15.61 73.9686 15.7708C74.1844 15.9316 74.4658 16.012 74.8128 16.012C75.1556 16.012 75.4328 15.9316 75.6444 15.7708C75.8602 15.61 76.0168 15.3709 76.1141 15.0535C76.2157 14.7361 76.2664 14.3447 76.2664 13.8792C76.2664 13.4095 76.2157 13.0202 76.1141 12.7112C76.0168 12.3981 75.8602 12.1632 75.6444 12.0067C75.4286 11.8501 75.1471 11.7718 74.8001 11.7718C74.2881 11.7718 73.9157 11.9474 73.683 12.2986C73.4544 12.6499 73.3402 13.1767 73.3402 13.8792ZM83.8075 10.2103C83.9048 10.2103 84.0169 10.2166 84.1439 10.2293C84.2751 10.2378 84.3809 10.2505 84.4613 10.2674L84.3153 12.0828C84.2518 12.0617 84.1608 12.0469 84.0423 12.0384C83.9281 12.0257 83.8286 12.0193 83.744 12.0193C83.4943 12.0193 83.251 12.0511 83.014 12.1146C82.7813 12.178 82.5718 12.2817 82.3856 12.4256C82.1994 12.5652 82.0513 12.7514 81.9413 12.9842C81.8355 13.2127 81.7826 13.4941 81.7826 13.8284V17.4402H79.8465V10.3436H81.3128L81.5985 11.5369H81.6937C81.8333 11.2957 82.0068 11.0757 82.2142 10.8768C82.4258 10.6736 82.6649 10.5128 82.9315 10.3943C83.2023 10.2716 83.4943 10.2103 83.8075 10.2103ZM88.7396 16.0247C88.9512 16.0247 89.1564 16.0036 89.3553 15.9612C89.5584 15.9189 89.7595 15.866 89.9583 15.8026V17.2435C89.751 17.3366 89.4928 17.4127 89.1839 17.472C88.8792 17.5355 88.5449 17.5672 88.181 17.5672C87.7578 17.5672 87.377 17.4995 87.0384 17.3641C86.7041 17.2244 86.4396 16.9853 86.245 16.6468C86.0545 16.304 85.9593 15.8279 85.9593 15.2186V11.7972H85.0326V10.9783L86.099 10.3309L86.6576 8.83282H87.8954V10.3436H89.8822V11.7972H87.8954V15.2186C87.8954 15.4894 87.9715 15.6925 88.1239 15.8279C88.2804 15.9591 88.4857 16.0247 88.7396 16.0247ZM100.61 17.4402L99.9369 15.2313H96.5536L95.8807 17.4402H93.7606L97.036 8.12189H99.4417L102.73 17.4402H100.61ZM99.4671 13.5809L98.7943 11.4227C98.752 11.2788 98.6948 11.0947 98.6229 10.8704C98.5552 10.6419 98.4854 10.4113 98.4134 10.1785C98.3457 9.94155 98.2907 9.73631 98.2484 9.56281C98.2061 9.73631 98.1468 9.95213 98.0706 10.2103C97.9987 10.4642 97.9289 10.7054 97.8612 10.9339C97.7935 11.1624 97.7448 11.3253 97.7152 11.4227L97.0487 13.5809H99.4671ZM107.783 10.2103C108.54 10.2103 109.149 10.4176 109.611 10.8323C110.072 11.2428 110.303 11.903 110.303 12.8128V17.4402H108.367V13.2952C108.367 12.7874 108.273 12.4044 108.087 12.1463C107.905 11.8882 107.618 11.7591 107.224 11.7591C106.632 11.7591 106.227 11.9601 106.012 12.3621C105.796 12.7641 105.688 13.3439 105.688 14.1014V17.4402H103.752V10.3436H105.231L105.491 11.2513H105.599C105.751 11.0058 105.94 10.8069 106.164 10.6546C106.392 10.5023 106.644 10.3901 106.919 10.3182C107.199 10.2462 107.486 10.2103 107.783 10.2103ZM114.543 17.5672C113.751 17.5672 113.106 17.2583 112.607 16.6404C112.112 16.0184 111.864 15.1064 111.864 13.9046C111.864 12.6901 112.116 11.7718 112.619 11.1497C113.123 10.5234 113.781 10.2103 114.594 10.2103C114.932 10.2103 115.23 10.2568 115.489 10.3499C115.747 10.443 115.969 10.5679 116.155 10.7244C116.346 10.881 116.506 11.0566 116.638 11.2513H116.701C116.676 11.1159 116.644 10.917 116.606 10.6546C116.572 10.388 116.555 10.1151 116.555 9.83575V7.56329H118.497V17.4402H117.012L116.638 16.5198H116.555C116.432 16.7145 116.278 16.8922 116.092 17.053C115.91 17.2096 115.692 17.3345 115.438 17.4276C115.184 17.5207 114.886 17.5672 114.543 17.5672ZM115.222 16.0247C115.751 16.0247 116.123 15.8681 116.339 15.555C116.559 15.2376 116.676 14.7615 116.688 14.1268V13.9173C116.688 13.2275 116.583 12.7007 116.371 12.3367C116.159 11.9686 115.766 11.7845 115.19 11.7845C114.763 11.7845 114.429 11.9686 114.187 12.3367C113.946 12.7049 113.826 13.236 113.826 13.93C113.826 14.624 113.946 15.1466 114.187 15.4979C114.433 15.8491 114.778 16.0247 115.222 16.0247ZM124.483 10.2103C124.581 10.2103 124.693 10.2166 124.82 10.2293C124.951 10.2378 125.057 10.2505 125.137 10.2674L124.991 12.0828C124.928 12.0617 124.837 12.0469 124.718 12.0384C124.604 12.0257 124.504 12.0193 124.42 12.0193C124.17 12.0193 123.927 12.0511 123.69 12.1146C123.457 12.178 123.248 12.2817 123.061 12.4256C122.875 12.5652 122.727 12.7514 122.617 12.9842C122.511 13.2127 122.458 13.4941 122.458 13.8284V17.4402H120.522V10.3436H121.989L122.274 11.5369H122.369C122.509 11.2957 122.683 11.0757 122.89 10.8768C123.102 10.6736 123.341 10.5128 123.607 10.3943C123.878 10.2716 124.17 10.2103 124.483 10.2103ZM129.352 10.2103C130.008 10.2103 130.573 10.3372 131.047 10.5911C131.521 10.8408 131.887 11.2047 132.145 11.6829C132.403 12.1611 132.532 12.7451 132.532 13.4349V14.3743H127.955C127.977 14.9202 128.139 15.3498 128.444 15.6629C128.753 15.9718 129.181 16.1263 129.726 16.1263C130.179 16.1263 130.594 16.0797 130.971 15.9866C131.347 15.8935 131.734 15.7539 132.132 15.5677V17.0657C131.781 17.2392 131.413 17.3662 131.028 17.4466C130.647 17.527 130.183 17.5672 129.638 17.5672C128.927 17.5672 128.296 17.436 127.746 17.1736C127.2 16.9113 126.771 16.5114 126.457 15.9739C126.148 15.4365 125.994 14.7594 125.994 13.9427C125.994 13.1133 126.134 12.4235 126.413 11.8734C126.696 11.319 127.09 10.9043 127.594 10.6292C128.097 10.3499 128.683 10.2103 129.352 10.2103ZM129.365 11.5877C128.988 11.5877 128.675 11.7083 128.425 11.9495C128.18 12.1907 128.038 12.5695 128 13.0858H130.717C130.712 12.798 130.66 12.542 130.558 12.3177C130.461 12.0934 130.313 11.9157 130.114 11.7845C129.919 11.6533 129.669 11.5877 129.365 11.5877ZM139.057 15.3328C139.057 15.8152 138.943 16.2236 138.715 16.5579C138.49 16.888 138.154 17.1398 137.705 17.3133C137.257 17.4826 136.698 17.5672 136.03 17.5672C135.535 17.5672 135.109 17.5355 134.754 17.472C134.403 17.4085 134.047 17.3027 133.687 17.1546V15.555C134.072 15.7285 134.485 15.8724 134.925 15.9866C135.369 16.0967 135.759 16.1517 136.093 16.1517C136.47 16.1517 136.738 16.0967 136.899 15.9866C137.064 15.8724 137.147 15.7243 137.147 15.5423C137.147 15.4238 137.113 15.318 137.045 15.2249C136.982 15.1276 136.842 15.0197 136.626 14.9012C136.41 14.7785 136.072 14.6198 135.611 14.4251C135.166 14.2389 134.8 14.0506 134.513 13.8602C134.229 13.6697 134.017 13.4455 133.878 13.1873C133.742 12.9249 133.675 12.5928 133.675 12.1907C133.675 11.5348 133.929 11.0418 134.436 10.7117C134.948 10.3774 135.632 10.2103 136.487 10.2103C136.927 10.2103 137.346 10.2547 137.743 10.3436C138.146 10.4324 138.558 10.5742 138.981 10.7689L138.397 12.1653C138.046 12.013 137.714 11.8882 137.401 11.7908C137.092 11.6935 136.777 11.6448 136.455 11.6448C136.171 11.6448 135.958 11.6829 135.814 11.7591C135.67 11.8353 135.598 11.9516 135.598 12.1082C135.598 12.2225 135.634 12.324 135.706 12.4129C135.782 12.5018 135.926 12.6012 136.138 12.7112C136.353 12.817 136.669 12.9546 137.083 13.1238C137.485 13.2889 137.834 13.4624 138.131 13.6443C138.427 13.8221 138.655 14.0443 138.816 14.3109C138.977 14.5732 139.057 14.9139 139.057 15.3328ZM64.8153 23.16H67.7035C68.9391 23.16 69.8744 23.3335 70.5091 23.6805C71.1439 24.0275 71.4613 24.6369 71.4613 25.5086C71.4613 25.8598 71.4041 26.1772 71.2899 26.4608C71.1799 26.7443 71.0191 26.977 70.8075 27.159C70.5959 27.341 70.3377 27.4595 70.0331 27.5145V27.5779C70.342 27.6414 70.6213 27.7514 70.8709 27.908C71.1206 28.0604 71.3195 28.2846 71.4676 28.5809C71.62 28.8729 71.6961 29.2622 71.6961 29.7488C71.6961 30.3117 71.5586 30.7941 71.2835 31.1961C71.0085 31.5981 70.6149 31.907 70.1029 32.1229C69.5951 32.3345 68.9899 32.4402 68.2874 32.4402H64.8153V23.16ZM66.7831 26.8353H67.9256C68.4969 26.8353 68.8926 26.7464 69.1126 26.5687C69.3327 26.3867 69.4427 26.1201 69.4427 25.7689C69.4427 25.4134 69.3115 25.1595 69.0492 25.0071C68.791 24.8506 68.3805 24.7723 67.8177 24.7723H66.7831V26.8353ZM66.7831 28.3968V30.8152H68.0653C68.6577 30.8152 69.0703 30.701 69.3031 30.4725C69.5358 30.244 69.6522 29.9372 69.6522 29.5521C69.6522 29.3235 69.6014 29.1225 69.4998 28.949C69.3983 28.7755 69.2269 28.6401 68.9857 28.5428C68.7487 28.4455 68.4207 28.3968 68.0018 28.3968H66.7831ZM79.8465 28.8792C79.8465 29.4717 79.7661 29.9964 79.6053 30.4534C79.4487 30.9105 79.2181 31.2977 78.9134 31.6151C78.613 31.9282 78.249 32.1652 77.8216 32.326C77.3984 32.4868 76.9203 32.5672 76.3871 32.5672C75.8877 32.5672 75.4286 32.4868 75.0096 32.326C74.5949 32.1652 74.2331 31.9282 73.9242 31.6151C73.6195 31.2977 73.3825 30.9105 73.2132 30.4534C73.0482 29.9964 72.9657 29.4717 72.9657 28.8792C72.9657 28.0921 73.1053 27.4256 73.3846 26.8797C73.6639 26.3338 74.0617 25.9191 74.578 25.6356C75.0942 25.352 75.71 25.2103 76.4251 25.2103C77.0895 25.2103 77.6777 25.352 78.1898 25.6356C78.7061 25.9191 79.1102 26.3338 79.4022 26.8797C79.6984 27.4256 79.8465 28.0921 79.8465 28.8792ZM74.9398 28.8792C74.9398 29.3447 74.9906 29.7361 75.0921 30.0535C75.1937 30.3709 75.3524 30.61 75.5682 30.7708C75.784 30.9316 76.0654 31.012 76.4124 31.012C76.7552 31.012 77.0324 30.9316 77.244 30.7708C77.4598 30.61 77.6164 30.3709 77.7137 30.0535C77.8153 29.7361 77.8661 29.3447 77.8661 28.8792C77.8661 28.4095 77.8153 28.0202 77.7137 27.7112C77.6164 27.3981 77.4598 27.1632 77.244 27.0067C77.0282 26.8501 76.7468 26.7718 76.3997 26.7718C75.8877 26.7718 75.5153 26.9474 75.2826 27.2986C75.054 27.6499 74.9398 28.1767 74.9398 28.8792ZM85.4769 25.2103C86.2344 25.2103 86.8438 25.4176 87.305 25.8323C87.7663 26.2428 87.9969 26.903 87.9969 27.8128V32.4402H86.0609V28.2952C86.0609 27.7874 85.9678 27.4044 85.7816 27.1463C85.5996 26.8882 85.3119 26.7591 84.9183 26.7591C84.3259 26.7591 83.9217 26.9601 83.7059 27.3621C83.4901 27.7641 83.3822 28.3439 83.3822 29.1014V32.4402H81.4461V25.3436H82.9251L83.1854 26.2513H83.2933C83.4456 26.0058 83.634 25.8069 83.8582 25.6546C84.0868 25.5023 84.3386 25.3901 84.6136 25.3182C84.8929 25.2462 85.1807 25.2103 85.4769 25.2103ZM91.9261 25.3436V32.4402H89.9901V25.3436H91.9261ZM90.9613 22.5633C91.249 22.5633 91.4966 22.631 91.7039 22.7664C91.9113 22.8976 92.015 23.1452 92.015 23.5091C92.015 23.8688 91.9113 24.1185 91.7039 24.2581C91.4966 24.3935 91.249 24.4612 90.9613 24.4612C90.6693 24.4612 90.4196 24.3935 90.2122 24.2581C90.0091 24.1185 89.9076 23.8688 89.9076 23.5091C89.9076 23.1452 90.0091 22.8976 90.2122 22.7664C90.4196 22.631 90.6693 22.5633 90.9613 22.5633ZM97.8866 26.7972H96.2108V32.4402H94.2747V26.7972H93.2083V25.8641L94.2747 25.3436V24.8231C94.2747 24.2179 94.3763 23.7482 94.5794 23.4139C94.7868 23.0753 95.0767 22.8384 95.4491 22.7029C95.8257 22.5633 96.27 22.4935 96.7821 22.4935C97.1587 22.4935 97.5015 22.5252 97.8104 22.5887C98.1193 22.6479 98.3711 22.7156 98.5658 22.7918L98.0706 24.2137C97.9225 24.1671 97.7617 24.1248 97.5882 24.0867C97.4147 24.0486 97.2158 24.0296 96.9915 24.0296C96.7207 24.0296 96.5218 24.1121 96.3949 24.2772C96.2721 24.438 96.2108 24.6453 96.2108 24.8992V25.3436H97.8866V26.7972ZM101.911 25.1976C102.863 25.1976 103.593 25.4049 104.101 25.8196C104.609 26.2344 104.863 26.8649 104.863 27.7112V32.4402H103.511L103.136 31.4754H103.085C102.882 31.7293 102.675 31.9367 102.463 32.0975C102.252 32.2583 102.008 32.3768 101.733 32.4529C101.458 32.5291 101.124 32.5672 100.73 32.5672C100.311 32.5672 99.9347 32.4868 99.6004 32.326C99.2704 32.1652 99.0101 31.9197 98.8197 31.5897C98.6292 31.2554 98.534 30.8322 98.534 30.3201C98.534 29.5669 98.7985 29.0125 99.3275 28.657C99.8565 28.2973 100.65 28.0984 101.708 28.0604L102.939 28.0223V27.7112C102.939 27.3388 102.842 27.0659 102.647 26.8924C102.453 26.7189 102.182 26.6321 101.835 26.6321C101.492 26.6321 101.156 26.6808 100.826 26.7781C100.495 26.8755 100.165 26.9982 99.8353 27.1463L99.1942 25.8387C99.5708 25.6398 99.9919 25.4832 100.457 25.369C100.927 25.2547 101.412 25.1976 101.911 25.1976ZM102.939 29.1522L102.19 29.1776C101.564 29.1945 101.128 29.3066 100.883 29.514C100.641 29.7213 100.521 29.9943 100.521 30.3328C100.521 30.629 100.608 30.8406 100.781 30.9676C100.955 31.0903 101.181 31.1517 101.46 31.1517C101.875 31.1517 102.224 31.029 102.508 30.7835C102.795 30.5381 102.939 30.1889 102.939 29.7361V29.1522ZM109.744 32.5672C109.042 32.5672 108.443 32.4402 107.948 32.1863C107.452 31.9282 107.076 31.5304 106.818 30.993C106.56 30.4555 106.431 29.7679 106.431 28.93C106.431 28.0625 106.577 27.3558 106.868 26.8099C107.165 26.2597 107.573 25.8556 108.094 25.5975C108.618 25.3393 109.226 25.2103 109.915 25.2103C110.406 25.2103 110.829 25.2589 111.185 25.3563C111.545 25.4494 111.858 25.5615 112.124 25.6927L111.553 27.1907C111.248 27.068 110.965 26.9686 110.702 26.8924C110.44 26.812 110.178 26.7718 109.915 26.7718C109.577 26.7718 109.295 26.8522 109.071 27.013C108.847 27.1696 108.68 27.4066 108.57 27.7239C108.46 28.0413 108.405 28.4391 108.405 28.9173C108.405 29.387 108.464 29.7763 108.582 30.0853C108.701 30.3942 108.872 30.6248 109.097 30.7772C109.321 30.9253 109.594 30.9993 109.915 30.9993C110.317 30.9993 110.675 30.9464 110.988 30.8406C111.301 30.7306 111.606 30.5783 111.902 30.3836V32.0403C111.606 32.2265 111.295 32.3598 110.969 32.4402C110.647 32.5249 110.239 32.5672 109.744 32.5672ZM115.489 25.3436V32.4402H113.553V25.3436H115.489ZM114.524 22.5633C114.812 22.5633 115.059 22.631 115.266 22.7664C115.474 22.8976 115.577 23.1452 115.577 23.5091C115.577 23.8688 115.474 24.1185 115.266 24.2581C115.059 24.3935 114.812 24.4612 114.524 24.4612C114.232 24.4612 113.982 24.3935 113.775 24.2581C113.572 24.1185 113.47 23.8688 113.47 23.5091C113.47 23.1452 113.572 22.8976 113.775 22.7664C113.982 22.631 114.232 22.5633 114.524 22.5633ZM123.975 28.8792C123.975 29.4717 123.895 29.9964 123.734 30.4534C123.578 30.9105 123.347 31.2977 123.042 31.6151C122.742 31.9282 122.378 32.1652 121.951 32.326C121.527 32.4868 121.049 32.5672 120.516 32.5672C120.017 32.5672 119.557 32.4868 119.139 32.326C118.724 32.1652 118.362 31.9282 118.053 31.6151C117.748 31.2977 117.511 30.9105 117.342 30.4534C117.177 29.9964 117.095 29.4717 117.095 28.8792C117.095 28.0921 117.234 27.4256 117.514 26.8797C117.793 26.3338 118.191 25.9191 118.707 25.6356C119.223 25.352 119.839 25.2103 120.554 25.2103C121.218 25.2103 121.807 25.352 122.319 25.6356C122.835 25.9191 123.239 26.3338 123.531 26.8797C123.827 27.4256 123.975 28.0921 123.975 28.8792ZM119.069 28.8792C119.069 29.3447 119.119 29.7361 119.221 30.0535C119.323 30.3709 119.481 30.61 119.697 30.7708C119.913 30.9316 120.194 31.012 120.541 31.012C120.884 31.012 121.161 30.9316 121.373 30.7708C121.589 30.61 121.745 30.3709 121.843 30.0535C121.944 29.7361 121.995 29.3447 121.995 28.8792C121.995 28.4095 121.944 28.0202 121.843 27.7112C121.745 27.3981 121.589 27.1632 121.373 27.0067C121.157 26.8501 120.876 26.7718 120.529 26.7718C120.017 26.7718 119.644 26.9474 119.411 27.2986C119.183 27.6499 119.069 28.1767 119.069 28.8792ZM70.4964 47.4402L69.8236 45.2313H66.4403L65.7674 47.4402H63.6473L66.9227 38.1219H69.3285L72.6165 47.4402H70.4964ZM69.3539 43.5809L68.681 41.4227C68.6387 41.2788 68.5816 41.0947 68.5096 40.8704C68.4419 40.6419 68.3721 40.4113 68.3001 40.1785C68.2324 39.9415 68.1774 39.7363 68.1351 39.5628C68.0928 39.7363 68.0335 39.9521 67.9574 40.2103C67.8854 40.4642 67.8156 40.7054 67.7479 40.9339C67.6802 41.1624 67.6315 41.3253 67.6019 41.4227L66.9354 43.5809H69.3539ZM75.8856 47.5672C75.0942 47.5672 74.4489 47.2583 73.9496 46.6404C73.4544 46.0184 73.2069 45.1064 73.2069 43.9046C73.2069 42.6901 73.4587 41.7718 73.9622 41.1497C74.4658 40.5234 75.1239 40.2103 75.9364 40.2103C76.2749 40.2103 76.5733 40.2568 76.8314 40.3499C77.0895 40.443 77.3117 40.5679 77.4979 40.7244C77.6883 40.881 77.8491 41.0566 77.9803 41.2513H78.0438C78.0184 41.1159 77.9867 40.917 77.9486 40.6546C77.9147 40.388 77.8978 40.1151 77.8978 39.8358V37.5633H79.8402V47.4402H78.3548L77.9803 46.5198H77.8978C77.7751 46.7145 77.6206 46.8922 77.4344 47.053C77.2525 47.2096 77.0345 47.3345 76.7806 47.4276C76.5267 47.5207 76.2284 47.5672 75.8856 47.5672ZM76.5648 46.0247C77.0938 46.0247 77.4662 45.8681 77.682 45.555C77.902 45.2376 78.0184 44.7615 78.0311 44.1268V43.9173C78.0311 43.2275 77.9253 42.7007 77.7137 42.3367C77.5021 41.9686 77.1086 41.7845 76.5331 41.7845C76.1056 41.7845 75.7713 41.9686 75.5301 42.3367C75.2889 42.7049 75.1683 43.236 75.1683 43.93C75.1683 44.624 75.2889 45.1466 75.5301 45.4979C75.7756 45.8491 76.1205 46.0247 76.5648 46.0247ZM83.5536 47.4402L80.8495 40.3436H82.8744L84.2455 44.387C84.3216 44.624 84.3809 44.8737 84.4232 45.136C84.4697 45.3984 84.5015 45.6333 84.5184 45.8406H84.5692C84.5819 45.6164 84.6115 45.3773 84.6581 45.1234C84.7088 44.8694 84.7744 44.624 84.8548 44.387L86.2196 40.3436H88.2445L85.5404 47.4402H83.5536ZM92.1927 40.2103C92.8486 40.2103 93.4136 40.3372 93.8875 40.5911C94.3615 40.8408 94.7275 41.2047 94.9857 41.6829C95.2438 42.1611 95.3729 42.7451 95.3729 43.4349V44.3743H90.7962C90.8174 44.9202 90.9803 45.3498 91.285 45.6629C91.5939 45.9718 92.0213 46.1263 92.5672 46.1263C93.02 46.1263 93.4347 46.0797 93.8114 45.9866C94.188 45.8935 94.5752 45.7539 94.973 45.5677V47.0657C94.6218 47.2392 94.2536 47.3662 93.8685 47.4466C93.4876 47.527 93.0243 47.5672 92.4784 47.5672C91.7674 47.5672 91.1369 47.436 90.5868 47.1736C90.0409 46.9113 89.6113 46.5114 89.2982 45.9739C88.9893 45.4365 88.8348 44.7594 88.8348 43.9427C88.8348 43.1133 88.9745 42.4235 89.2538 41.8734C89.5373 41.319 89.9308 40.9043 90.4344 40.6292C90.938 40.3499 91.5241 40.2103 92.1927 40.2103ZM92.2054 41.5877C91.8288 41.5877 91.5156 41.7083 91.266 41.9495C91.0205 42.1907 90.8788 42.5695 90.8407 43.0858H93.5575C93.5532 42.798 93.5003 42.542 93.3988 42.3177C93.3014 42.0934 93.1533 41.9157 92.9544 41.7845C92.7598 41.6533 92.5101 41.5877 92.2054 41.5877ZM100.978 40.2103C101.735 40.2103 102.345 40.4176 102.806 40.8323C103.267 41.2428 103.498 41.903 103.498 42.8128V47.4402H101.562V43.2952C101.562 42.7874 101.469 42.4044 101.283 42.1463C101.101 41.8882 100.813 41.7591 100.419 41.7591C99.8268 41.7591 99.4227 41.9601 99.2069 42.3621C98.9911 42.7641 98.8831 43.3439 98.8831 44.1014V47.4402H96.9471V40.3436H98.4261L98.6864 41.2513H98.7943C98.9466 41.0058 99.1349 40.8069 99.3592 40.6546C99.5877 40.5023 99.8395 40.3901 100.115 40.3182C100.394 40.2462 100.682 40.2103 100.978 40.2103ZM108.481 46.0247C108.692 46.0247 108.898 46.0036 109.097 45.9612C109.3 45.9189 109.501 45.866 109.7 45.8026V47.2435C109.492 47.3366 109.234 47.4127 108.925 47.472C108.62 47.5355 108.286 47.5672 107.922 47.5672C107.499 47.5672 107.118 47.4995 106.78 47.3641C106.445 47.2244 106.181 46.9853 105.986 46.6468C105.796 46.304 105.701 45.8279 105.701 45.2186V41.7972H104.774V40.9783L105.84 40.3309L106.399 38.8328H107.637V40.3436H109.623V41.7972H107.637V45.2186C107.637 45.4894 107.713 45.6925 107.865 45.8279C108.022 45.9591 108.227 46.0247 108.481 46.0247ZM113.077 40.3436V47.4402H111.14V40.3436H113.077ZM112.112 37.5633C112.399 37.5633 112.647 37.631 112.854 37.7664C113.062 37.8976 113.165 38.1452 113.165 38.5091C113.165 38.8688 113.062 39.1185 112.854 39.2581C112.647 39.3935 112.399 39.4612 112.112 39.4612C111.82 39.4612 111.57 39.3935 111.363 39.2581C111.16 39.1185 111.058 38.8688 111.058 38.5091C111.058 38.1452 111.16 37.8976 111.363 37.7664C111.57 37.631 111.82 37.5633 112.112 37.5633ZM120.065 45.3328C120.065 45.8152 119.951 46.2236 119.723 46.5579C119.498 46.888 119.162 47.1398 118.713 47.3133C118.265 47.4826 117.706 47.5672 117.037 47.5672C116.542 47.5672 116.117 47.5355 115.762 47.472C115.41 47.4085 115.055 47.3027 114.695 47.1546V45.555C115.08 45.7285 115.493 45.8724 115.933 45.9866C116.377 46.0967 116.767 46.1517 117.101 46.1517C117.478 46.1517 117.746 46.0967 117.907 45.9866C118.072 45.8724 118.155 45.7243 118.155 45.5423C118.155 45.4238 118.121 45.318 118.053 45.2249C117.99 45.1276 117.85 45.0197 117.634 44.9012C117.418 44.7785 117.08 44.6198 116.618 44.4251C116.174 44.2389 115.808 44.0506 115.52 43.8602C115.237 43.6697 115.025 43.4455 114.886 43.1873C114.75 42.9249 114.682 42.5928 114.682 42.1907C114.682 41.5348 114.936 41.0418 115.444 40.7117C115.956 40.3774 116.64 40.2103 117.494 40.2103C117.935 40.2103 118.354 40.2547 118.751 40.3436C119.153 40.4324 119.566 40.5742 119.989 40.7689L119.405 42.1653C119.054 42.013 118.722 41.8882 118.409 41.7908C118.1 41.6935 117.784 41.6448 117.463 41.6448C117.179 41.6448 116.966 41.6829 116.822 41.7591C116.678 41.8353 116.606 41.9516 116.606 42.1082C116.606 42.2225 116.642 42.324 116.714 42.4129C116.79 42.5018 116.934 42.6012 117.145 42.7112C117.361 42.817 117.676 42.9546 118.091 43.1238C118.493 43.2889 118.842 43.4624 119.139 43.6443C119.435 43.8221 119.663 44.0443 119.824 44.3109C119.985 44.5732 120.065 44.9139 120.065 45.3328ZM124.566 46.0247C124.777 46.0247 124.983 46.0036 125.181 45.9612C125.385 45.9189 125.586 45.866 125.785 45.8026V47.2435C125.577 47.3366 125.319 47.4127 125.01 47.472C124.705 47.5355 124.371 47.5672 124.007 47.5672C123.584 47.5672 123.203 47.4995 122.865 47.3641C122.53 47.2244 122.266 46.9853 122.071 46.6468C121.881 46.304 121.785 45.8279 121.785 45.2186V41.7972H120.859V40.9783L121.925 40.3309L122.484 38.8328H123.722V40.3436H125.708V41.7972H123.722V45.2186C123.722 45.4894 123.798 45.6925 123.95 45.8279C124.107 45.9591 124.312 46.0247 124.566 46.0247ZM134.697 39.6644C134.32 39.6644 133.986 39.7384 133.694 39.8865C133.406 40.0304 133.163 40.2399 132.964 40.515C132.769 40.79 132.621 41.1222 132.519 41.5115C132.418 41.9009 132.367 42.3388 132.367 42.8255C132.367 43.4814 132.447 44.0421 132.608 44.5076C132.773 44.9689 133.027 45.3222 133.37 45.5677C133.713 45.8089 134.155 45.9295 134.697 45.9295C135.073 45.9295 135.45 45.8872 135.827 45.8026C136.207 45.7179 136.62 45.5973 137.064 45.4407V47.0911C136.654 47.2604 136.25 47.381 135.852 47.4529C135.454 47.5291 135.008 47.5672 134.513 47.5672C133.556 47.5672 132.769 47.3704 132.151 46.9769C131.538 46.5791 131.083 46.0247 130.786 45.3138C130.49 44.5986 130.342 43.765 130.342 42.8128C130.342 42.1103 130.437 41.4671 130.628 40.8831C130.818 40.2991 131.098 39.7934 131.466 39.366C131.834 38.9386 132.289 38.6085 132.83 38.3758C133.372 38.143 133.994 38.0267 134.697 38.0267C135.158 38.0267 135.619 38.0859 136.08 38.2044C136.546 38.3187 136.99 38.4774 137.413 38.6805L136.779 40.2801C136.432 40.1151 136.083 39.9712 135.731 39.8484C135.38 39.7257 135.035 39.6644 134.697 39.6644ZM140.828 37.5633V39.5755C140.828 39.9267 140.816 40.261 140.79 40.5784C140.769 40.8958 140.752 41.1201 140.74 41.2513H140.841C140.993 41.0058 141.173 40.8069 141.381 40.6546C141.592 40.5023 141.825 40.3901 142.079 40.3182C142.333 40.2462 142.606 40.2103 142.898 40.2103C143.41 40.2103 143.856 40.3012 144.237 40.4832C144.618 40.6609 144.914 40.9424 145.126 41.3275C145.337 41.7083 145.443 42.2034 145.443 42.8128V47.4402H143.507V43.2952C143.507 42.7874 143.414 42.4044 143.228 42.1463C143.042 41.8882 142.754 41.7591 142.365 41.7591C141.975 41.7591 141.668 41.8501 141.444 42.032C141.22 42.2098 141.061 42.4743 140.968 42.8255C140.875 43.1725 140.828 43.5978 140.828 44.1014V47.4402H138.892V37.5633H140.828ZM153.949 40.3436V47.4402H152.464L152.203 46.5325H152.102C151.95 46.7737 151.759 46.9705 151.531 47.1229C151.302 47.2752 151.05 47.3873 150.775 47.4593C150.5 47.5312 150.215 47.5672 149.918 47.5672C149.41 47.5672 148.968 47.4783 148.592 47.3006C148.215 47.1186 147.921 46.8372 147.709 46.4564C147.502 46.0755 147.398 45.5804 147.398 44.971V40.3436H149.334V44.4886C149.334 44.9964 149.425 45.3794 149.607 45.6375C149.789 45.8957 150.079 46.0247 150.477 46.0247C150.87 46.0247 151.179 45.9359 151.404 45.7581C151.628 45.5762 151.785 45.3117 151.873 44.9647C151.966 44.6134 152.013 44.186 152.013 43.6824V40.3436H153.949ZM159.941 40.2103C160.039 40.2103 160.151 40.2166 160.278 40.2293C160.409 40.2378 160.515 40.2505 160.595 40.2674L160.449 42.0828C160.386 42.0617 160.295 42.0469 160.176 42.0384C160.062 42.0257 159.962 42.0193 159.878 42.0193C159.628 42.0193 159.385 42.0511 159.148 42.1146C158.915 42.178 158.706 42.2817 158.519 42.4256C158.333 42.5652 158.185 42.7514 158.075 42.9842C157.969 43.2127 157.916 43.4941 157.916 43.8284V47.4402H155.98V40.3436H157.447L157.732 41.5369H157.827C157.967 41.2957 158.141 41.0757 158.348 40.8768C158.56 40.6736 158.799 40.5128 159.065 40.3943C159.336 40.2716 159.628 40.2103 159.941 40.2103ZM164.765 47.5672C164.063 47.5672 163.464 47.4402 162.969 47.1863C162.474 46.9282 162.097 46.5304 161.839 45.993C161.581 45.4555 161.452 44.7679 161.452 43.93C161.452 43.0625 161.598 42.3558 161.89 41.8099C162.186 41.2597 162.595 40.8556 163.115 40.5975C163.64 40.3393 164.247 40.2103 164.937 40.2103C165.428 40.2103 165.851 40.2589 166.206 40.3563C166.566 40.4494 166.879 40.5615 167.146 40.6927L166.575 42.1907C166.27 42.068 165.986 41.9686 165.724 41.8924C165.462 41.812 165.199 41.7718 164.937 41.7718C164.598 41.7718 164.317 41.8522 164.093 42.013C163.868 42.1696 163.701 42.4066 163.591 42.7239C163.481 43.0413 163.426 43.4391 163.426 43.9173C163.426 44.387 163.485 44.7763 163.604 45.0853C163.722 45.3942 163.894 45.6248 164.118 45.7772C164.342 45.9253 164.615 45.9993 164.937 45.9993C165.339 45.9993 165.696 45.9464 166.01 45.8406C166.323 45.7306 166.627 45.5783 166.924 45.3836V47.0403C166.627 47.2265 166.316 47.3598 165.991 47.4402C165.669 47.5249 165.261 47.5672 164.765 47.5672ZM170.51 37.5633V39.5755C170.51 39.9267 170.497 40.261 170.472 40.5784C170.451 40.8958 170.434 41.1201 170.421 41.2513H170.523C170.675 41.0058 170.855 40.8069 171.062 40.6546C171.274 40.5023 171.507 40.3901 171.761 40.3182C172.014 40.2462 172.287 40.2103 172.579 40.2103C173.091 40.2103 173.538 40.3012 173.919 40.4832C174.3 40.6609 174.596 40.9424 174.807 41.3275C175.019 41.7083 175.125 42.2034 175.125 42.8128V47.4402H173.189V43.2952C173.189 42.7874 173.096 42.4044 172.91 42.1463C172.723 41.8882 172.436 41.7591 172.046 41.7591C171.657 41.7591 171.35 41.8501 171.126 42.032C170.902 42.2098 170.743 42.4743 170.65 42.8255C170.557 43.1725 170.51 43.5978 170.51 44.1014V47.4402H168.574V37.5633H170.51Z" fill="#005481"/>
<g clip-path="url(#clip0_17_114)">
<path d="M14.3113 26.1093C14.2901 23.96 14.9033 22.1164 18.7095 18.2124L26.9561 9.75371C29.1552 7.49806 30.9948 5.56991 30.9948 3.46391V0.145506C30.9948 -0.0475255 30.7622 -0.0475255 30.741 0.145506C30.1913 2.83494 29.1552 3.89769 26.9772 6.13382L17.3985 15.9351C13.7826 19.6222 13.2752 23.5479 14.0575 26.1093C14.121 26.3262 14.3113 26.3458 14.3113 26.1093ZM27.8865 34.5463C27.8865 34.7394 28.0979 34.7394 28.1402 34.5463C28.69 31.8352 29.7472 30.7725 31.904 28.558L35.1012 25.3285C39.2879 21.0124 37.3637 16.8699 34.9109 15.7182C34.6994 15.6097 34.6148 15.7854 34.784 15.9351C36.7505 17.6702 36.1584 20.5982 33.6844 23.1358L31.9294 24.9425C29.7303 27.1786 27.8907 29.1068 27.8907 31.2323L27.8865 34.5463ZM45.1832 40.3156L35.5241 38.6434L31.9083 42.3544C29.7092 44.6078 27.8907 46.5403 27.8907 48.6442V49.2341C27.8907 49.3859 28.081 49.4293 28.1444 49.258C28.8211 47.371 31.0836 45.3301 35.228 46.048C35.228 46.048 53.286 49.258 53.434 49.258C53.4788 49.2654 53.5248 49.2562 53.5636 49.2319C53.6024 49.2076 53.6314 49.17 53.6455 49.1257C53.6547 49.0955 53.6556 49.0634 53.6481 49.0328C53.6407 49.0022 53.6251 48.9743 53.6032 48.9521C53.5397 48.8676 45.1874 40.3199 45.1874 40.3199L45.1832 40.3156ZM22.4522 40.5325H25.6239C25.6566 40.5296 25.6872 40.5149 25.7104 40.4911C25.7337 40.4673 25.7479 40.4359 25.7508 40.4024C25.7508 38.6889 24.4821 37.5156 19.4073 38.407L8.4583 40.3416C8.4583 40.3416 0.122892 48.8806 0.0594569 48.9695C0.026242 48.9985 0.0054318 49.0398 0.00147992 49.0844C-0.00247196 49.1289 0.0107484 49.1734 0.0383118 49.2081C0.0601382 49.2302 0.0873512 49.2459 0.117108 49.2535C0.146865 49.2611 0.178073 49.2604 0.207473 49.2514C0.355489 49.2276 18.4134 46.0415 18.4134 46.0415C22.5579 45.3236 24.8204 47.3428 25.4971 49.2514C25.5605 49.425 25.7508 49.4033 25.7508 49.2276V42.8293C25.7479 42.7958 25.7337 42.7644 25.7104 42.7406C25.6872 42.7168 25.6566 42.7021 25.6239 42.6992L22.4522 42.7209C22.4192 42.7188 22.388 42.7045 22.3647 42.6805C22.3413 42.6565 22.3273 42.6246 22.3253 42.5908V40.6605C22.3277 40.6268 22.3419 40.5951 22.3652 40.5712C22.3884 40.5473 22.4193 40.5328 22.4522 40.5303V40.5325ZM28.119 46.1499C28.3297 44.9033 28.8302 43.7271 29.5781 42.7209H27.9922C27.959 42.7235 27.9279 42.7383 27.9045 42.7626C27.8812 42.787 27.8673 42.8191 27.8653 42.8532V46.1499C27.8653 46.343 28.0979 46.343 28.119 46.1499ZM30.9948 11.7513C30.9948 11.5539 30.7622 11.5539 30.741 11.7513C30.1913 14.4385 29.1552 15.5013 26.9772 17.7374L18.5614 26.3458C14.3747 30.6423 16.2989 34.8044 18.7518 35.9561C18.9632 36.0646 19.0478 35.8694 18.8786 35.7392C16.9121 34.0041 17.5042 31.0523 19.9782 28.5385L26.9561 21.3812C29.1552 19.1255 30.9948 17.1952 30.9948 15.0914V11.7513ZM26.9561 15.5447C29.1552 13.3107 30.9736 11.3804 30.9948 9.25486V5.91477C30.9948 5.71957 30.7622 5.71957 30.741 5.91477C30.1913 8.60419 29.1552 9.68864 26.9772 11.9226L18.3289 20.7739C14.1421 25.0683 13.402 29.2325 15.5377 31.922C15.6857 32.0955 15.8337 31.987 15.7491 31.7702C14.3324 28.4951 17.7156 25.0249 19.3227 23.3765L26.9561 15.5447ZM34.9066 33.438L31.8829 36.5179C30.5084 37.9277 29.282 39.2073 28.542 40.5086H31.5234L31.8829 40.1399L36.2176 35.6937C39.8335 32.0283 40.3409 28.1026 39.5586 25.5433C39.4951 25.3264 39.3048 25.3047 39.3048 25.5433C39.326 27.6905 38.7128 29.534 34.9066 33.438ZM34.3146 28.2327L31.904 30.7269C29.7049 32.9826 27.8653 34.9346 27.8653 37.0406V40.359C27.8653 40.552 28.0979 40.552 28.119 40.359C28.6688 37.6695 29.7049 36.5851 31.8829 34.3511L35.3126 30.8354C39.4994 26.541 40.2394 22.3767 38.1038 19.6872C37.9558 19.5137 37.8078 19.6222 37.8923 19.8391C39.3048 23.1141 35.9216 26.5843 34.3146 28.2327Z" fill="#005481"/>
</g>
<defs>
<clipPath id="clip0_17_114">
<rect width="53.6473" height="49.3705" fill="white"/>
</clipPath>
</defs>
</svg>
